# xmcd CD database file
#
# Track frame offsets:
#	150
#	21822
#	41672
#	59390
#
# Disc length: 1077 seconds
#
# Revision: 0
# Processed by: cddbd v1.5.1PL0 Copyright (c) Steve Scherf et al.
# Submitted via: CDex 1.51
#
DISCID=2d043304
DTITLE=Sparkling★Point - Hey Hey Baby! You're NO.1!
DYEAR=2004
DGENRE=JPop
TTITLE0=Hey Hey Baby! You're NO.1!
TTITLE1=君とまた…
TTITLE2=Only One
TTITLE3=Hey Hey Baby! You're NO.1! -Instrumental-
EXTD=YEAR: 2004
EXTT0=
EXTT1=
EXTT2=
EXTT3=
PLAYORDER=
